HIERARCHY
ROOT Pelvis
{
	OFFSET 0.000000 -0.827000 96.638000
	CHANNELS 6 Xposition Yposition Zposition Xrotation Yrotation Zrotation
	JOINT Left_Thigh
	{
		OFFSET 8.514300 1.474900 -1.687401
		CHANNELS 6 Xposition Yposition Zposition Xrotation Yrotation Zrotation
		JOINT Left_Calf
		{
			OFFSET 3.492000 1.469100 -46.038998
			CHANNELS 6 Xposition Yposition Zposition Xrotation Yrotation Zrotation
			JOINT Left_Foot
			{
				OFFSET 3.213700 1.976600 -42.431004
				CHANNELS 6 Xposition Yposition Zposition Xrotation Yrotation Zrotation
				JOINT Left_Toe0
				{
					OFFSET 2.413299 -11.930099 -3.901400
					CHANNELS 6 Xposition Yposition Zposition Xrotation Yrotation Zrotation
					End Site
					{
						OFFSET 2.413298 -11.930099 -3.901400
					}
				}
			}
		}
	}
	JOINT Right_Thigh
	{
		OFFSET -8.514300 1.474900 -1.687302
		CHANNELS 6 Xposition Yposition Zposition Xrotation Yrotation Zrotation
		JOINT Right_Calf
		{
			OFFSET -3.491000 1.466400 -46.039200
			CHANNELS 6 Xposition Yposition Zposition Xrotation Yrotation Zrotation
			JOINT Right_Foot
			{
				OFFSET -3.214899 1.984000 -42.430500
				CHANNELS 6 Xposition Yposition Zposition Xrotation Yrotation Zrotation
				JOINT Right_Toe0
				{
					OFFSET -2.448700 -11.922700 -3.901900
					CHANNELS 6 Xposition Yposition Zposition Xrotation Yrotation Zrotation
					End Site
					{
						OFFSET -2.448700 -11.922701 -3.901900
					}
				}
			}
		}
	}
	JOINT Spine
	{
		OFFSET 0.000000 0.006400 9.490395
		CHANNELS 6 Xposition Yposition Zposition Xrotation Yrotation Zrotation
		JOINT Spine1
		{
			OFFSET 0.000000 0.006200 8.078209
			CHANNELS 6 Xposition Yposition Zposition Xrotation Yrotation Zrotation
			JOINT Spine2
			{
				OFFSET 0.000000 1.379300 15.708191
				CHANNELS 6 Xposition Yposition Zposition Xrotation Yrotation Zrotation
				JOINT Right_Clavicle
				{
					OFFSET -3.426600 3.704400 18.017014
					CHANNELS 6 Xposition Yposition Zposition Xrotation Yrotation Zrotation
					JOINT Right_UpperArm
					{
						OFFSET -12.661501 0.083100 -3.988907
						CHANNELS 6 Xposition Yposition Zposition Xrotation Yrotation Zrotation
						JOINT Right_Forearm
						{
							OFFSET -14.438898 -1.941700 -18.467506
							CHANNELS 6 Xposition Yposition Zposition Xrotation Yrotation Zrotation
							JOINT Right_Hand
							{
								OFFSET -14.699602 -10.681400 -17.874901
								CHANNELS 6 Xposition Yposition Zposition Xrotation Yrotation Zrotation
								End Site
								{
									OFFSET -14.699600 -10.681400 -17.874901
								}
							}
						}
					}
				}
				JOINT Neck
				{
					OFFSET 0.000000 2.070700 22.622803
					CHANNELS 6 Xposition Yposition Zposition Xrotation Yrotation Zrotation
					JOINT Head
					{
						OFFSET 0.000000 -1.059900 7.052094
						CHANNELS 6 Xposition Yposition Zposition Xrotation Yrotation Zrotation
						End Site
						{
							OFFSET 0.000000 -1.059900 7.052094
						}
					}
				}
				JOINT Left_Clavicle
				{
					OFFSET 3.426600 3.704500 18.017014
					CHANNELS 6 Xposition Yposition Zposition Xrotation Yrotation Zrotation
					JOINT Left_UpperArm
					{
						OFFSET 12.661501 0.083001 -3.988815
						CHANNELS 6 Xposition Yposition Zposition Xrotation Yrotation Zrotation
						JOINT Left_Forearm
						{
							OFFSET 14.435200 -1.956300 -18.468788
							CHANNELS 6 Xposition Yposition Zposition Xrotation Yrotation Zrotation
							JOINT Left_Hand
							{
								OFFSET 14.703300 -10.656900 -17.886604
								CHANNELS 6 Xposition Yposition Zposition Xrotation Yrotation Zrotation
								End Site
								{
									OFFSET 14.703300 -10.656901 -17.886604
								}
							}
						}
					}
				}
			}
		}
	}
}
MOTION
Frames: 5
Frame Time: 0.033333
-0.000000 -0.000001 93.525398 -0.959453 -0.204363 -0.571865 9.400746 1.474897 -1.687043 -0.543648 4.382834 2.469046 3.372880 1.419604 -44.453400 -2.119991 0.578676 -0.576943 3.129037 1.935784 -41.416515 6.123873 -4.175979 -5.674256 2.444698 -12.199592 -3.890583 0.000047 0.001789 0.001229 -9.400896 1.475174 -1.687734 -1.198989 -4.122185 0.967831 -3.372094 1.413670 -44.454323 -0.106845 -0.653672 2.545420 -3.126452 1.945098 -41.415081 4.328338 3.640353 4.289849 -2.481172 -12.193261 -3.891234 -0.000195 0.000039 -0.000123 0.000167 -0.000039 8.740677 -0.002645 0.004658 0.118574 -0.000063 0.006035 13.110702 4.335853 0.265847 0.133981 0.000524 1.104846 12.537033 4.329392 0.124367 0.139735 -3.586165 2.204552 12.608683 0.138507 17.847549 1.641198 -13.818034 0.091835 -4.354035 -0.543508 34.062488 -10.444105 -14.541731 -1.954226 -18.600731 17.074267 -2.419369 -10.598493 -14.363896 -10.437716 -17.466734 -0.001335 0.001982 -0.000143 -0.000791 0.990629 16.462168 -15.498949 0.550797 0.282875 0.000339 -1.074609 7.149276 -0.354211 0.748931 1.395815 3.584988 2.222271 12.605888 0.272278 -18.580331 -1.170624 13.713441 0.089853 -4.319853 1.021900 -33.793088 9.681559 14.541494 -1.970196 -18.602982 15.017349 3.760122 11.038845 14.367050 -10.413356 -17.477072 0.001075 0.001980 0.002492 
-0.000000 0.000001 83.559402 -1.626406 1.586771 67.905536 10.087122 0.000079 -0.000410 12.347491 16.326684 19.632588 3.339699 1.400978 -44.005379 -0.247370 0.564186 -0.438011 3.552924 1.552942 -41.535378 -17.187671 -8.196490 1.157009 1.490689 -12.654344 -3.181432 0.000049 0.001785 0.001226 -10.087211 -0.000226 0.000496 -22.411874 -14.634701 -10.854266 -3.336756 1.399161 -43.974449 -0.285905 -0.578264 0.465613 -3.558995 1.560388 -41.532593 21.582797 4.826711 3.483889 -1.484678 -12.284667 -3.196926 -0.000194 0.000041 -0.000124 -0.000013 0.083979 9.566166 -0.503317 -3.129495 -4.139986 -0.000596 -0.000126 14.349705 1.430248 1.743100 -6.146714 0.000218 0.760183 8.768651 14.359674 0.869177 -3.964100 -3.550121 3.563469 17.559505 4.902879 21.027653 -11.300511 -11.979652 0.078656 -3.773857 17.892302 -46.870776 29.475473 -14.736079 -1.975544 -18.851814 2.337181 -0.231763 -1.807252 -14.297181 -10.390103 -17.385105 -0.000758 0.001024 -0.000739 0.000692 3.716858 21.168686 -5.693995 6.626913 -8.557983 0.000255 -1.101364 7.328057 2.428906 -1.838078 22.959589 3.550803 2.631659 17.722446 -0.677212 -7.165675 -9.169450 11.873610 0.078289 -3.741658 -2.770037 24.409383 -11.736450 14.734815 -1.991961 -18.853191 -25.210819 2.251214 -19.415113 14.299771 -10.363942 -17.396669 0.002137 0.003567 0.002393 
1.061904 0.017801 84.145309 -0.835923 1.268092 68.581957 10.087401 0.000135 -0.000515 13.367733 16.697094 14.452158 3.322727 1.394242 -43.828224 -0.268624 0.566901 -0.438205 3.560664 1.613418 -41.532452 -12.472404 -8.080524 1.680946 1.447806 -12.289644 -3.195883 0.000047 0.001784 0.001226 -10.087363 -0.000335 0.000586 -23.416814 -12.743340 -15.645583 -3.338832 1.402442 -44.005756 2.724349 -0.566395 0.236306 -3.559485 1.560409 -41.533005 19.058029 6.212165 6.816862 -1.484424 -12.285339 -3.196934 -0.000192 0.000038 -0.000122 -0.000482 0.036329 9.566751 -0.216984 -2.588799 -4.298389 0.000566 -0.000466 14.348825 1.523537 2.196042 -6.389031 -0.000316 0.760544 8.768580 13.854571 0.699635 -4.101114 -3.544725 3.590387 17.552677 5.147950 21.455772 -11.717107 -11.865163 0.078607 -3.738120 18.684075 -47.660968 30.188907 -14.735809 -1.976211 -18.852009 2.369464 -0.234141 -1.834586 -14.296006 -10.390065 -17.386414 -0.000147 0.000289 0.000448 0.000056 3.715354 21.168331 -5.899004 6.332075 -9.009037 -0.000058 -1.100994 7.328242 2.317145 -2.018700 22.811187 3.546683 2.593673 17.730385 -0.815821 -7.557599 -10.016144 11.816307 0.077683 -3.723312 -2.400916 24.284147 -13.355937 14.735272 -1.994097 -18.853308 -25.778442 2.401387 -19.846066 14.300180 -10.364614 -17.394804 0.001680 0.002672 0.000978 
2.512501 -0.239999 84.417198 -1.780221 1.731155 67.632622 10.086691 0.000218 -0.000128 14.401730 15.993554 11.044034 3.339890 1.400745 -44.003490 -0.196521 0.565307 -0.434276 3.555328 1.553501 -41.532604 -11.271167 -8.969971 4.199162 1.447810 -12.289182 -3.195061 0.000047 0.001782 0.001225 -10.086782 -0.000369 0.000210 -22.666579 -13.574399 -19.331957 -3.338441 1.399451 -44.002640 2.719270 -0.565953 0.239672 -3.559053 1.562199 -41.534374 17.582941 6.999145 8.435150 -1.485176 -12.285577 -3.196584 -0.000193 0.000033 -0.000123 -0.000435 0.058774 9.565832 -0.351602 -3.451744 -4.281029 -0.000003 0.000623 14.348711 1.758487 1.078887 -6.438878 -0.000143 0.760372 8.768344 13.344309 1.563443 -4.181126 -3.544527 3.596451 17.539276 5.305579 22.514581 -11.658846 -11.689883 0.076957 -3.682883 19.801167 -48.849615 32.061530 -14.735463 -1.977327 -18.853172 2.622329 -0.266759 -2.023432 -14.297174 -10.389432 -17.385075 0.000250 -0.000200 0.001212 0.000872 3.713922 21.155176 -6.668434 5.829235 -8.898977 0.000232 -1.101008 7.328534 2.596529 -1.682412 22.555093 3.546111 2.590541 17.716209 -0.945735 -8.191524 -10.397138 11.708474 0.077250 -3.688597 -2.410907 24.666547 -14.675761 14.735271 -1.992319 -18.852776 -25.955363 2.449737 -19.976732 14.300999 -10.365071 -17.396275 0.001456 0.002085 -0.000715 
4.327400 -0.761599 84.739601 -2.472699 2.056534 64.819288 10.086924 -0.000349 -0.000080 15.471442 15.900330 9.790610 3.338206 1.400914 -44.004459 -0.249040 0.565205 -0.437324 3.555265 1.553466 -41.534492 -8.048875 -9.276492 6.104967 1.448223 -12.288777 -3.195863 0.000047 0.001785 0.001229 -10.086961 0.000331 0.000173 -21.208543 -14.892148 -20.282764 -3.337321 1.398723 -44.003918 2.700752 -0.568161 0.239265 -3.560548 1.560136 -41.535019 15.301032 6.356768 5.801924 -1.484891 -12.285505 -3.196828 -0.000195 0.000043 -0.000119 0.000193 0.077417 9.566319 -0.464968 -4.262025 -4.076451 -0.000507 -0.000264 14.349107 1.797575 0.474257 -6.138761 0.000453 0.760341 8.768330 12.746761 1.979480 -4.001933 -3.549638 3.570361 17.559750 5.181279 23.814494 -10.895186 -11.483138 0.075551 -3.618212 21.584632 -49.443869 34.814321 -14.735565 -1.975633 -18.852394 2.835943 -0.289572 -2.191680 -14.296765 -10.390242 -17.385170 -0.001011 0.001361 -0.001030 0.001066 3.715779 21.169250 -6.798093 5.984477 -8.330467 -0.000113 -1.101431 7.328110 2.450249 -1.689098 22.067248 3.549801 2.628812 17.722324 -0.893933 -7.850015 -10.359380 11.623012 0.076706 -3.661654 -1.972527 24.896864 -15.768164 14.734994 -1.992496 -18.852997 -25.945686 2.444948 -19.971734 14.299684 -10.365446 -17.395645 -0.000960 -0.001080 0.002436 
